<mxfile host="Electron" modified="2023-07-23T10:03:09.193Z" agent="Mozilla/5.0 (X11; Linux x86_64) AppleWebKit/537.36 (KHTML, like Gecko) draw.io/21.6.5 Chrome/114.0.5735.243 Electron/25.3.1 Safari/537.36" etag="g9zbMvGvh9B2ZWCGBhNJ" version="21.6.5" type="device">
  <diagram name="PÃ¡gina-1" id="uAnbATEjNzbg1E-TgKnV">
    <mxGraphModel dx="948" dy="581" grid="1" gridSize="10" guides="1" tooltips="1" connect="1" arrows="1" fold="1" page="1" pageScale="1" pageWidth="827" pageHeight="1169" math="0" shadow="0">
      <root>
        <mxCell id="0" />
        <mxCell id="1" parent="0" />
        <mxCell id="Dptlz2PRCcSpFc9EAY_W-1" value="&lt;b&gt;&amp;nbsp; Data Flow by City&lt;/b&gt;" style="rounded=0;whiteSpace=wrap;html=1;fillColor=#f5f5f5;fontColor=#333333;strokeColor=#666666;verticalAlign=top;align=left;" parent="1" vertex="1">
          <mxGeometry x="170" y="110" width="580" height="430" as="geometry" />
        </mxCell>
        <mxCell id="Fwl7ajU-SFP8siu2tE5E-9" value="" style="group" vertex="1" connectable="0" parent="1">
          <mxGeometry x="190" y="150" width="160" height="370" as="geometry" />
        </mxCell>
        <mxCell id="bFJMQcvxy0cHlTDQ9agu-11" value="&amp;nbsp; Preprocess" style="rounded=0;whiteSpace=wrap;html=1;fillColor=#fff2cc;strokeColor=#d6b656;verticalAlign=top;align=left;" parent="Fwl7ajU-SFP8siu2tE5E-9" vertex="1">
          <mxGeometry width="160" height="370" as="geometry" />
        </mxCell>
        <mxCell id="Dptlz2PRCcSpFc9EAY_W-2" value="Cleaning" style="rounded=0;whiteSpace=wrap;html=1;fillColor=#fad7ac;strokeColor=#b46504;" parent="Fwl7ajU-SFP8siu2tE5E-9" vertex="1">
          <mxGeometry x="35" y="42.69230769230769" width="90" height="71.15384615384616" as="geometry" />
        </mxCell>
        <mxCell id="Dptlz2PRCcSpFc9EAY_W-3" value="Transformation" style="rounded=0;whiteSpace=wrap;html=1;fillColor=#fad7ac;strokeColor=#b46504;" parent="Fwl7ajU-SFP8siu2tE5E-9" vertex="1">
          <mxGeometry x="35" y="159.99846153846156" width="90" height="71.15384615384616" as="geometry" />
        </mxCell>
        <mxCell id="bFJMQcvxy0cHlTDQ9agu-1" value="Filtering Areas" style="rounded=0;whiteSpace=wrap;html=1;fillColor=#fad7ac;strokeColor=#b46504;" parent="Fwl7ajU-SFP8siu2tE5E-9" vertex="1">
          <mxGeometry x="35" y="269.99615384615385" width="90" height="71.15384615384616" as="geometry" />
        </mxCell>
        <mxCell id="bFJMQcvxy0cHlTDQ9agu-2" value="" style="edgeStyle=orthogonalEdgeStyle;rounded=0;orthogonalLoop=1;jettySize=auto;html=1;" parent="Fwl7ajU-SFP8siu2tE5E-9" source="Dptlz2PRCcSpFc9EAY_W-2" target="Dptlz2PRCcSpFc9EAY_W-3" edge="1">
          <mxGeometry relative="1" as="geometry" />
        </mxCell>
        <mxCell id="bFJMQcvxy0cHlTDQ9agu-3" value="" style="edgeStyle=orthogonalEdgeStyle;rounded=0;orthogonalLoop=1;jettySize=auto;html=1;" parent="Fwl7ajU-SFP8siu2tE5E-9" source="Dptlz2PRCcSpFc9EAY_W-3" target="bFJMQcvxy0cHlTDQ9agu-1" edge="1">
          <mxGeometry relative="1" as="geometry" />
        </mxCell>
        <mxCell id="Fwl7ajU-SFP8siu2tE5E-10" value="" style="group" vertex="1" connectable="0" parent="1">
          <mxGeometry x="380" y="150" width="160" height="370" as="geometry" />
        </mxCell>
        <mxCell id="bFJMQcvxy0cHlTDQ9agu-38" value="&amp;nbsp;Postprocess" style="rounded=0;whiteSpace=wrap;html=1;fillColor=#eeeeee;strokeColor=#36393d;verticalAlign=top;align=left;" parent="Fwl7ajU-SFP8siu2tE5E-10" vertex="1">
          <mxGeometry width="160" height="369.99999999999994" as="geometry" />
        </mxCell>
        <mxCell id="bFJMQcvxy0cHlTDQ9agu-8" value="Matrices Construction" style="rounded=0;whiteSpace=wrap;html=1;fillColor=#cdeb8b;strokeColor=#36393d;" parent="Fwl7ajU-SFP8siu2tE5E-10" vertex="1">
          <mxGeometry x="35.55555555555556" y="269.99615384615385" width="90" height="71.15384615384616" as="geometry" />
        </mxCell>
        <mxCell id="bFJMQcvxy0cHlTDQ9agu-37" value="" style="edgeStyle=orthogonalEdgeStyle;rounded=0;orthogonalLoop=1;jettySize=auto;html=1;" parent="Fwl7ajU-SFP8siu2tE5E-10" source="bFJMQcvxy0cHlTDQ9agu-12" target="bFJMQcvxy0cHlTDQ9agu-8" edge="1">
          <mxGeometry relative="1" as="geometry" />
        </mxCell>
        <mxCell id="bFJMQcvxy0cHlTDQ9agu-12" value="Resampling" style="rounded=0;whiteSpace=wrap;html=1;fillColor=#fad9d5;strokeColor=#ae4132;" parent="Fwl7ajU-SFP8siu2tE5E-10" vertex="1">
          <mxGeometry x="35.55555555555556" y="159.99846153846156" width="90" height="71.15384615384616" as="geometry" />
        </mxCell>
        <mxCell id="Fwl7ajU-SFP8siu2tE5E-13" value="" style="edgeStyle=orthogonalEdgeStyle;rounded=0;orthogonalLoop=1;jettySize=auto;html=1;" edge="1" parent="Fwl7ajU-SFP8siu2tE5E-10" source="Fwl7ajU-SFP8siu2tE5E-8" target="bFJMQcvxy0cHlTDQ9agu-12">
          <mxGeometry relative="1" as="geometry" />
        </mxCell>
        <mxCell id="Fwl7ajU-SFP8siu2tE5E-8" value="Genetic Algorithm" style="rounded=0;whiteSpace=wrap;html=1;fillColor=#ffff88;strokeColor=#36393d;" vertex="1" parent="Fwl7ajU-SFP8siu2tE5E-10">
          <mxGeometry x="35.55555555555556" y="42.69230769230769" width="90" height="71.15384615384616" as="geometry" />
        </mxCell>
        <mxCell id="Fwl7ajU-SFP8siu2tE5E-12" value="" style="edgeStyle=orthogonalEdgeStyle;rounded=0;orthogonalLoop=1;jettySize=auto;html=1;entryX=0;entryY=0.5;entryDx=0;entryDy=0;" edge="1" parent="1" source="bFJMQcvxy0cHlTDQ9agu-1" target="Fwl7ajU-SFP8siu2tE5E-8">
          <mxGeometry relative="1" as="geometry" />
        </mxCell>
        <mxCell id="bFJMQcvxy0cHlTDQ9agu-20" value="&amp;nbsp; Models Evaluation" style="rounded=0;whiteSpace=wrap;html=1;fillColor=#dae8fc;strokeColor=#6c8ebf;verticalAlign=top;align=left;" parent="1" vertex="1">
          <mxGeometry x="570" y="150" width="160" height="370" as="geometry" />
        </mxCell>
        <mxCell id="Fwl7ajU-SFP8siu2tE5E-27" value="" style="group" vertex="1" connectable="0" parent="1">
          <mxGeometry x="587.5" y="200" width="125" height="305" as="geometry" />
        </mxCell>
        <mxCell id="bFJMQcvxy0cHlTDQ9agu-41" value="CNN-2D" style="rounded=0;whiteSpace=wrap;html=1;fillColor=#bac8d3;strokeColor=#23445d;" parent="Fwl7ajU-SFP8siu2tE5E-27" vertex="1">
          <mxGeometry width="125" height="35" as="geometry" />
        </mxCell>
        <mxCell id="Fwl7ajU-SFP8siu2tE5E-17" value="MLP" style="rounded=0;whiteSpace=wrap;html=1;fillColor=#bac8d3;strokeColor=#23445d;" vertex="1" parent="Fwl7ajU-SFP8siu2tE5E-27">
          <mxGeometry y="45" width="125" height="35" as="geometry" />
        </mxCell>
        <mxCell id="Fwl7ajU-SFP8siu2tE5E-22" value="SVC" style="rounded=0;whiteSpace=wrap;html=1;fillColor=#bac8d3;strokeColor=#23445d;" vertex="1" parent="Fwl7ajU-SFP8siu2tE5E-27">
          <mxGeometry y="90" width="125" height="35" as="geometry" />
        </mxCell>
        <mxCell id="Fwl7ajU-SFP8siu2tE5E-23" value="LR" style="rounded=0;whiteSpace=wrap;html=1;fillColor=#bac8d3;strokeColor=#23445d;" vertex="1" parent="Fwl7ajU-SFP8siu2tE5E-27">
          <mxGeometry y="135" width="125" height="35" as="geometry" />
        </mxCell>
        <mxCell id="Fwl7ajU-SFP8siu2tE5E-24" value="&lt;font style=&quot;font-size: 12px;&quot;&gt;KNN&lt;/font&gt;" style="rounded=0;whiteSpace=wrap;html=1;fillColor=#bac8d3;strokeColor=#23445d;" vertex="1" parent="Fwl7ajU-SFP8siu2tE5E-27">
          <mxGeometry y="180" width="125" height="35" as="geometry" />
        </mxCell>
        <mxCell id="Fwl7ajU-SFP8siu2tE5E-25" value="RF" style="rounded=0;whiteSpace=wrap;html=1;fillColor=#bac8d3;strokeColor=#23445d;" vertex="1" parent="Fwl7ajU-SFP8siu2tE5E-27">
          <mxGeometry y="225" width="125" height="35" as="geometry" />
        </mxCell>
        <mxCell id="Fwl7ajU-SFP8siu2tE5E-26" value="NB" style="rounded=0;whiteSpace=wrap;html=1;fillColor=#bac8d3;strokeColor=#23445d;" vertex="1" parent="Fwl7ajU-SFP8siu2tE5E-27">
          <mxGeometry y="270" width="125" height="35" as="geometry" />
        </mxCell>
        <mxCell id="Fwl7ajU-SFP8siu2tE5E-28" value="" style="edgeStyle=orthogonalEdgeStyle;rounded=0;orthogonalLoop=1;jettySize=auto;html=1;entryX=0;entryY=0.5;entryDx=0;entryDy=0;" edge="1" parent="1" source="bFJMQcvxy0cHlTDQ9agu-8" target="bFJMQcvxy0cHlTDQ9agu-20">
          <mxGeometry relative="1" as="geometry">
            <mxPoint x="588" y="488" as="targetPoint" />
            <Array as="points">
              <mxPoint x="550" y="456" />
              <mxPoint x="550" y="335" />
            </Array>
          </mxGeometry>
        </mxCell>
      </root>
    </mxGraphModel>
  </diagram>
</mxfile>
